<?xml version="1.0" standalone="no"?>
<!DOCTYPE svg PUBLIC "-//W3C//DTD SVG 20010904//EN"
 "http://www.w3.org/TR/2001/REC-SVG-20010904/DTD/svg10.dtd">
<svg version="1.0" xmlns="http://www.w3.org/2000/svg"
 width="1024.000000pt" height="1038.000000pt" viewBox="0 0 1024.000000 1038.000000"
 preserveAspectRatio="xMidYMid meet">
<metadata>
Created by potrace 1.16, written by Peter Selinger 2001-2019
</metadata>
<g transform="translate(0.000000,1038.000000) scale(0.100000,-0.100000)"
fill="#000000" stroke="none">
<path d="M4396 10010 c23 -9 64 -56 64 -73 0 -5 -10 5 -23 24 l-23 34 -137 3
c-129 2 -138 1 -158 -19 -21 -21 -22 -26 -13 -168 4 -80 8 -315 8 -523 1 -207
3 -379 6 -381 3 -3 4 52 4 121 l-2 127 8 -156 c4 -86 11 -166 15 -179 4 -12
21 -28 38 -35 18 -8 26 -14 19 -15 -23 0 -51 20 -66 48 -9 15 -15 22 -16 16 0
-18 39 -62 61 -69 11 -4 26 -2 33 4 10 9 16 4 26 -19 7 -17 21 -35 31 -40 10
-6 163 -10 368 -10 l351 0 0 -45 0 -46 -181 2 c-99 1 -183 -2 -187 -6 -4 -4
-7 -12 -7 -18 0 -7 -6 -12 -14 -12 -8 0 -16 -7 -18 -15 -3 -10 -2 -11 4 -3 4
6 7 -49 5 -123 -2 -82 1 -148 7 -167 9 -26 9 -29 -1 -19 -9 9 -15 60 -19 155
l-6 142 1 -142 c1 -137 2 -143 25 -165 13 -13 21 -18 18 -13 -3 6 13 10 40 11
24 1 40 -2 35 -5 -15 -10 4 -48 33 -67 26 -17 31 -17 123 5 54 12 107 24 120
27 20 4 22 1 22 -40 l0 -45 -67 -4 -68 -3 75 -2 75 -2 -2 62 c-3 77 4 65 10
-16 l4 -59 -111 6 c-61 4 -129 10 -151 14 -37 6 -38 7 -15 15 21 6 21 7 -5 2
-46 -8 -49 -8 -72 0 -17 5 -29 1 -48 -18 -24 -24 -25 -29 -25 -166 0 -129 2
-142 21 -161 17 -17 29 -20 62 -16 27 4 36 2 26 -4 -26 -16 -69 -10 -94 16
-14 13 -25 20 -25 15 0 -17 53 -50 81 -50 18 0 30 -6 34 -19 11 -37 54 -44
163 -27 142 23 142 23 142 -19 0 -33 -2 -35 -33 -35 -18 0 -37 -4 -42 -8 -9
-8 -166 6 -247 23 -32 6 -40 3 -62 -19 -25 -24 -26 -29 -26 -158 0 -110 3
-138 17 -158 10 -14 16 -27 15 -30 -2 -2 2 -6 10 -8 9 -2 8 0 -2 7 -11 8 -3
10 35 10 28 -1 42 -3 33 -6 -16 -4 -17 -7 -3 -34 19 -35 49 -44 123 -35 32 4
85 10 120 13 l62 6 0 -426 0 -425 -48 -7 c-26 -3 -54 -11 -62 -17 -12 -8 -12
-9 2 -4 10 3 40 8 68 12 l50 7 3 436 2 436 0 -439 0 -440 -70 -13 c-38 -7 -76
-11 -82 -8 -7 2 -23 0 -35 -6 -20 -8 -19 -9 7 -4 22 4 26 3 15 -5 -8 -5 -22
-10 -31 -10 -8 0 -57 -20 -108 -45 -51 -25 -96 -43 -101 -40 -4 3 -14 -3 -21
-13 -13 -16 -12 -16 6 -2 15 11 14 7 -4 -13 -27 -30 -33 -33 -25 -14 2 7 -175
194 -421 444 -234 237 -425 433 -425 436 0 2 20 10 45 17 45 13 186 9 234 -6
19 -6 23 -4 17 7 -4 8 9 -4 30 -26 20 -22 47 -63 60 -92 24 -53 47 -69 87 -59
15 4 12 1 -8 -9 -20 -10 -24 -14 -10 -13 11 1 34 -12 52 -30 18 -18 41 -32 55
-32 33 1 248 121 271 152 35 47 17 90 -71 178 -81 80 -136 119 -264 189 -84
45 -106 50 -33 7 75 -44 51 -37 -44 12 -49 26 -87 50 -85 54 3 4 -1 5 -9 2 -7
-2 -49 5 -93 17 -157 44 -365 24 -507 -47 -26 -14 -46 -21 -45 -17 1 5 -3 18
-10 30 -11 20 9 41 288 315 201 197 301 302 306 320 11 50 -6 80 -109 188
-228 237 -664 703 -746 795 -49 56 -75 74 -110 75 -21 0 -22 -2 -10 -17 7 -10
-6 0 -29 21 -31 29 -50 40 -76 41 -32 1 -44 -8 -128 -95 l-93 -95 98 95 c53
52 97 90 97 85 0 -14 -188 -201 -197 -197 -4 2 -9 -2 -11 -10 -2 -9 0 -8 7 2
9 12 11 10 11 -10 -1 -19 31 -56 133 -155 73 -71 104 -103 68 -70 -36 33 -84
76 -106 95 -32 28 -34 28 -10 4 63 -64 198 -188 191 -176 -17 28 13 8 59 -40
l50 -53 -46 40 c-73 64 236 -237 346 -337 74 -67 61 -52 -50 58 -82 81 -123
124 -90 94 33 -29 106 -98 163 -153 l102 -100 -127 -126 c-70 -69 -121 -118
-113 -108 12 16 4 28 -87 118 -86 84 -105 99 -133 99 -29 0 -31 -2 -19 -17 7
-10 -7 1 -32 23 -41 39 -112 66 -103 40 2 -6 -8 -24 -22 -41 l-26 -30 18 35
c26 51 30 191 9 285 -31 142 -118 275 -233 358 -49 35 -202 121 -202 113 0 -2
20 -16 44 -30 25 -15 48 -31 51 -36 4 -6 -14 3 -40 19 -26 16 -77 42 -113 56
-120 48 -324 45 -425 -7 -22 -11 -45 -17 -53 -14 -8 3 -12 2 -9 -4 3 -5 -3
-14 -14 -19 -26 -14 -34 -14 -25 1 5 7 3 8 -5 4 -7 -5 -10 -11 -7 -14 7 -7
-13 -32 -26 -32 -6 0 -5 8 3 18 7 9 -22 -17 -64 -58 -70 -68 -100 -101 -62
-70 8 7 15 8 15 2 0 -13 -25 -33 -33 -26 -3 3 -10 -5 -17 -18 -11 -22 -10 -22
4 -4 18 23 21 14 5 -15 -5 -11 -15 -16 -21 -13 -6 4 -8 3 -5 -3 3 -5 -5 -41
-18 -79 -53 -153 -43 -310 30 -460 37 -76 57 -103 118 -160 41 -39 101 -84
133 -102 33 -17 54 -32 48 -32 -17 0 -123 67 -183 116 l-56 46 54 -50 c65 -60
237 -165 313 -192 93 -33 181 -42 267 -29 102 15 111 17 125 26 7 4 0 -2 -14
-15 -33 -31 -78 -54 -90 -47 -14 8 -25 -17 -21 -50 2 -22 27 -55 99 -130 l97
-100 -102 99 c-65 64 -103 109 -106 125 l-4 26 -2 -25 c-1 -20 23 -49 110
-135 62 -61 108 -104 104 -96 -7 11 -4 13 11 6 10 -4 28 -7 39 -7 15 1 16 -1
6 -8 -8 -4 -21 -6 -30 -2 -9 3 -13 2 -9 -2 3 -4 13 -9 22 -10 8 -1 24 -11 36
-21 l21 -19 -113 -115 c-62 -64 -101 -105 -85 -91 39 34 33 19 -10 -26 -20
-22 -30 -30 -22 -20 10 14 11 20 2 23 -12 4 -281 285 -443 463 -177 194 -212
229 -241 239 -28 10 -33 7 -29 -14 1 -5 -13 4 -32 21 -18 17 -42 36 -53 42
-11 6 -15 12 -8 12 7 0 29 -14 50 -32 l38 -32 -31 33 c-21 22 -44 35 -65 37
-26 3 -31 1 -19 -7 12 -9 11 -10 -6 -6 -17 4 -43 -17 -120 -97 -96 -98 -96
-98 -11 -16 48 46 87 80 87 75 0 -6 -36 -46 -80 -90 -98 -98 -100 -110 -28
-179 47 -44 48 -46 10 -17 -23 18 -49 42 -57 54 -8 12 -15 17 -15 11 0 -6 37
-44 83 -85 45 -40 69 -59 53 -41 -55 60 -11 32 49 -30 35 -37 43 -48 20 -28
-22 19 -11 4 25 -33 35 -37 67 -67 69 -67 3 0 -10 16 -29 35 -19 19 -30 35
-26 35 8 0 486 -450 486 -458 0 -2 -54 47 -121 109 -66 63 -161 152 -212 198
-101 92 -76 67 282 -278 135 -130 250 -235 256 -233 7 1 20 -7 30 -18 10 -11
30 -21 44 -21 25 -2 25 -2 3 -6 -16 -3 -33 4 -50 19 l-27 23 24 -27 c14 -16
32 -28 40 -28 9 0 34 -14 55 -30 42 -32 82 -38 119 -19 12 6 150 142 307 301
203 206 282 293 275 301 -5 7 2 1 17 -12 l27 -23 -30 -53 c-16 -28 -41 -85
-56 -126 -26 -70 -28 -84 -28 -239 0 -149 3 -171 24 -230 53 -144 140 -283
224 -356 33 -28 35 -31 9 -14 -36 24 -114 114 -151 173 -27 45 -40 50 -14 6
30 -52 118 -153 164 -190 24 -19 40 -28 36 -21 -13 19 0 14 45 -18 47 -34 43
-41 -5 -8 -18 11 -25 14 -17 5 17 -18 86 -59 148 -88 42 -20 72 -19 100 4 23
19 122 239 122 273 0 51 -8 62 -81 109 -123 80 -182 188 -183 339 0 64 3 91
12 94 10 3 9 10 -5 25 -24 29 513 -492 644 -625 57 -57 103 -107 102 -113 0
-5 -13 -23 -29 -40 -42 -45 -50 -90 -57 -322 l-6 -213 -251 -2 -251 -2 255 -6
c140 -4 -8 -5 -330 -3 -322 2 -817 7 -1100 11 -494 7 -505 7 -260 13 l255 6
-295 -1 -295 -1 6 280 c4 154 7 422 8 596 1 306 0 317 -20 343 -12 15 -30 26
-44 26 -13 0 -42 16 -65 35 -34 29 -50 35 -83 34 l-42 -2 49 -6 c48 -7 96 -44
96 -74 0 -7 -9 3 -20 20 -23 39 -30 41 -200 47 -74 3 -260 10 -413 16 -153 7
-313 10 -355 8 -102 -4 -103 -8 -100 -191 l3 -139 33 -29 c18 -16 42 -29 54
-29 12 0 32 -12 44 -27 21 -27 26 -28 111 -28 48 0 181 4 294 8 l206 9 7 -117
c4 -64 5 -120 1 -123 -3 -3 -56 -9 -118 -13 l-112 -7 110 2 c61 1 116 5 123
10 10 6 12 38 8 139 l-5 132 10 -120 c13 -158 12 -161 -52 -170 -72 -10 -311
3 -463 26 -70 10 -147 19 -170 19 -32 0 -38 3 -26 11 13 9 13 10 0 6 -8 -2
-15 -10 -15 -18 -1 -8 -6 -13 -13 -12 -26 6 -33 -40 -30 -199 l3 -160 28 -24
c15 -13 39 -24 52 -24 13 0 37 -13 53 -30 35 -34 45 -35 162 -16 101 17 163
23 332 32 l128 7 0 -118 0 -118 -57 6 c-35 3 -50 2 -38 -3 11 -5 39 -9 62 -9
l42 -1 4 138 3 137 2 -142 2 -142 -192 4 c-106 3 -263 7 -349 10 -126 4 -159
2 -175 -10 -26 -20 -39 -19 -23 3 13 15 12 16 -2 4 -14 -11 -17 -35 -15 -172
1 -181 4 -188 78 -201 l43 -6 -37 -2 c-26 -1 -45 6 -65 23 -28 24 -28 26 -34
168 l-6 143 1 -143 1 -144 33 -29 c18 -16 44 -29 57 -29 14 0 28 -7 32 -15 3
-9 19 -23 35 -31 25 -13 69 -14 314 -8 l284 7 2 -79 2 -79 6 90 c6 79 6 74 6
-50 l-1 -140 -220 0 c-218 0 -340 10 -301 24 11 4 -7 7 -40 7 -32 -1 -78 2
-102 7 -37 6 -46 4 -67 -17 -24 -25 -25 -29 -25 -179 0 -141 2 -157 21 -181
15 -19 30 -26 57 -27 l37 -2 -35 -7 c-22 -5 -27 -8 -13 -9 12 0 36 -15 53 -32
28 -28 36 -31 73 -26 179 24 311 38 421 44 l129 6 -6 -39 c-4 -21 -7 -79 -7
-128 l0 -89 -152 8 c-84 4 -242 8 -351 9 l-198 2 -25 -29 c-23 -27 -24 -35
-24 -165 0 -135 7 -167 32 -167 7 0 13 -6 13 -14 0 -8 7 -16 15 -18 13 -4 13
-3 0 7 -13 10 -12 11 3 6 10 -3 33 -7 50 -7 l32 -2 -35 -7 c-23 -5 -27 -8 -13
-9 12 0 27 -10 33 -21 21 -40 37 -41 333 -30 155 7 371 15 481 19 l199 7 29
33 29 33 -7 628 -7 628 39 5 c21 4 451 9 954 12 503 3 999 8 1101 11 l186 6 7
-37 c4 -20 9 -35 12 -32 3 2 1 23 -5 46 -5 23 -5 38 0 35 5 -3 9 -13 9 -23 0
-61 83 -254 147 -345 l35 -49 -183 -181 -184 -181 178 180 177 180 -27 40
c-15 22 -44 72 -65 110 -21 39 -38 66 -38 62 0 -12 56 -118 89 -167 l31 -45
-508 -505 c-280 -278 -445 -444 -368 -370 l141 135 -155 -158 c-140 -142 -187
-186 -149 -141 7 9 12 33 10 55 -3 48 23 139 53 188 31 49 97 106 150 132 56
26 75 65 57 115 -15 42 -98 189 -114 203 -7 5 -24 12 -39 16 -21 5 -29 3 -34
-9 -5 -14 -10 -12 -25 13 -22 36 -53 54 -79 46 -32 -10 -172 -155 -218 -225
-23 -36 -54 -95 -69 -133 -14 -37 -28 -65 -30 -63 -2 2 3 21 12 41 8 21 14 40
11 42 -2 2 -11 -15 -20 -38 -11 -28 -14 -45 -7 -52 6 -6 7 -16 1 -27 -5 -10
-15 -58 -21 -109 -20 -143 9 -305 70 -404 28 -46 27 -58 -11 -93 -18 -16 -27
-22 -21 -14 27 35 -49 137 -94 128 -10 -2 -24 3 -31 12 -10 13 -11 12 -5 -5 3
-11 2 -17 -2 -12 -5 4 -9 17 -10 28 -1 17 -9 22 -36 24 -31 3 -43 -6 -139 -98
l-105 -102 90 94 c50 51 104 102 120 112 17 10 24 19 16 19 -8 0 -66 -52 -130
-116 -64 -64 -111 -114 -106 -111 6 3 10 -10 10 -33 0 -23 -4 -36 -10 -34 -5
3 28 -31 74 -75 76 -72 83 -82 71 -98 -13 -17 -13 -17 6 0 19 17 17 19 -61 93
-46 44 -59 59 -30 36 28 -22 66 -56 85 -76 l34 -36 -28 -28 c-16 -15 -26 -21
-22 -14 5 8 -71 92 -210 235 -119 122 -222 225 -229 229 -6 4 -27 10 -45 13
-31 5 -32 4 -20 -12 8 -10 -4 -1 -26 19 -63 60 -79 55 -245 -71 -30 -23 -59
-39 -66 -37 -6 3 -17 -3 -25 -12 -12 -15 -11 -16 5 -3 9 7 17 11 17 8 0 -12
-135 -107 -146 -103 -6 2 -24 -7 -40 -21 l-29 -25 33 22 c58 39 33 12 -33 -36
-36 -25 -69 -44 -72 -41 -5 6 -123 -71 -123 -80 0 -6 15 4 75 46 27 20 46 31
43 26 -11 -19 -118 -88 -125 -81 -3 3 -20 -5 -37 -17 -17 -13 -76 -54 -131
-92 -139 -95 -133 -88 -125 -138 5 -32 26 -68 86 -147 68 -90 85 -106 114
-111 l35 -6 -32 -2 c-26 -1 -38 6 -62 37 -84 103 -121 151 -140 183 -11 18
-21 29 -21 22 0 -6 17 -33 37 -60 20 -26 50 -66 67 -88 54 -71 89 -105 109
-105 11 0 35 -13 54 -30 61 -54 90 -43 238 86 90 79 308 261 458 383 l79 64
66 -64 c37 -35 101 -95 143 -134 41 -38 11 -7 -68 70 -79 77 -143 144 -143
150 0 5 70 -60 155 -145 l155 -154 -32 -33 c-33 -34 -51 -45 -28 -18 7 8 9 15
4 15 -5 0 -20 17 -34 37 -48 71 -81 103 -108 103 -14 0 -37 10 -51 23 -23 21
-23 20 4 -18 l28 -40 -36 40 c-19 22 -34 42 -32 45 2 3 -12 5 -31 5 -31 0 -47
-12 -145 -111 -60 -61 -109 -119 -109 -129 0 -23 57 -77 158 -149 63 -43 82
-62 77 -75 -5 -13 -4 -14 7 -3 14 14 12 17 -72 86 -19 15 -28 25 -20 20 31
-15 110 -86 110 -98 0 -7 -5 -17 -11 -23 -9 -9 -16 -6 -29 10 -12 14 -29 21
-57 22 -28 1 -50 9 -73 28 -22 19 -39 26 -54 21 -11 -3 -61 -46 -110 -95 -78
-78 -88 -92 -82 -115 5 -19 4 -24 -6 -18 -7 4 -5 -2 6 -14 10 -12 22 -19 27
-16 5 2 28 -5 51 -17 72 -36 73 -38 34 -78 -35 -36 -68 -100 -44 -85 7 5 9 2
6 -8 -4 -10 27 -49 96 -117 56 -55 104 -101 107 -101 3 0 -40 46 -95 102
l-101 103 95 -92 c57 -55 107 -95 125 -99 26 -6 27 -8 10 -15 -15 -6 -16 -8
-4 -8 9 -1 24 -10 34 -21 26 -29 76 -43 109 -30 18 6 25 14 20 22 -4 7 2 5 13
-5 11 -9 24 -17 30 -17 6 0 29 -18 52 -40 32 -32 49 -40 77 -40 31 0 46 10
115 77 109 107 118 142 58 227 -45 63 -65 88 -45 54 21 -36 20 -45 -3 -24 -11
10 -19 30 -19 46 l1 29 26 -34 c14 -19 38 -53 53 -75 21 -29 35 -40 55 -41
l28 -1 -30 -8 -30 -8 30 -1 c19 -1 35 -9 43 -21 7 -12 24 -25 39 -31 46 -17
86 6 183 107 88 92 91 97 88 137 -3 39 -8 45 -93 109 -49 38 -98 77 -109 87
-18 19 -18 20 2 46 12 15 19 32 16 39 -4 6 59 -54 140 -134 80 -80 146 -149
146 -155 0 -6 -39 -55 -86 -110 -48 -55 -93 -110 -102 -123 -8 -12 -19 -22
-24 -22 -6 0 14 28 44 61 29 34 66 78 81 98 27 33 26 33 -8 -4 -68 -73 -196
-225 -190 -225 3 0 19 15 36 33 52 54 0 -12 -95 -121 -49 -56 -92 -102 -94
-102 -3 0 3 10 14 22 53 60 133 159 103 127 -80 -83 -249 -279 -242 -279 4 0
32 30 62 65 30 36 56 63 59 61 2 -3 -28 -40 -67 -83 -51 -56 -71 -86 -71 -105
0 -15 5 -30 10 -33 6 -3 10 -12 10 -18 0 -7 -9 2 -20 18 -11 17 -20 26 -20 20
1 -18 34 -50 129 -125 80 -63 99 -74 130 -73 36 2 36 2 6 -7 -16 -4 -22 -8
-13 -9 9 0 30 -13 47 -27 35 -29 89 -41 119 -25 11 6 51 55 88 108 66 96 419
570 524 706 43 55 54 77 58 116 4 47 3 49 -54 108 -79 82 -422 412 -457 441
-24 19 -26 26 -16 38 11 13 18 9 54 -26 22 -22 49 -40 59 -40 10 0 34 -14 53
-30 24 -22 44 -30 70 -30 33 0 47 10 140 103 86 86 103 108 103 134 0 35 -31
79 -63 89 -12 3 -46 22 -75 41 -50 33 -52 36 -39 56 28 42 43 44 100 14 213
-111 508 -98 728 33 76 45 182 139 220 195 23 34 26 35 91 35 44 0 68 4 71 13
4 9 6 9 6 0 1 -9 17 -13 46 -13 47 0 56 11 36 48 -10 19 7 92 21 92 5 0 8 -31
8 -70 l0 -70 45 0 45 0 0 70 c0 68 1 70 25 70 23 0 25 4 25 40 l0 40 -94 0
c-66 0 -96 -4 -99 -12 -4 -10 -6 -10 -6 0 -1 8 -22 12 -71 12 l-70 0 -1 -67
-1 -68 -22 65 c-22 64 -23 65 -62 68 -36 3 -41 0 -54 -28 l-15 -30 -14 22
c-14 22 -13 22 5 8 19 -14 19 -14 0 8 -11 12 -23 22 -27 22 -5 0 -41 16 -80
35 -40 19 -74 33 -76 31 -2 -2 23 -16 56 -32 34 -15 59 -29 57 -31 -2 -2 -37
12 -78 32 -41 19 -79 35 -85 35 -6 0 -23 -10 -39 -22 -23 -18 -26 -18 -14 -4
8 11 28 25 45 32 19 8 23 13 12 14 -9 0 -34 -16 -55 -36 -20 -20 -31 -33 -23
-28 8 4 12 2 10 -5 -3 -7 -8 -11 -11 -9 -4 2 -22 -19 -41 -45 -19 -26 -49 -59
-67 -72 -19 -14 -29 -25 -24 -25 6 0 27 15 47 34 20 18 37 30 37 26 0 -14 -79
-72 -90 -65 -5 3 -10 32 -10 64 0 31 -4 61 -10 67 -6 6 53 72 170 189 l180
180 0 -43 c0 -24 4 -41 9 -38 4 3 6 -6 3 -19 -3 -19 0 -25 14 -25 14 0 15 -3
6 -8 -15 -10 -5 -42 13 -42 13 0 41 -23 64 -52 23 -30 4 -20 -29 15 -30 30
-31 30 -15 4 20 -31 50 -51 65 -42 6 3 10 1 10 -5 0 -6 5 -8 10 -5 6 3 10 2
10 -3 0 -4 88 -9 196 -11 108 -1 204 -5 213 -8 14 -4 14 -3 1 7 -12 9 -9 11
18 7 17 -2 32 0 32 4 0 5 7 5 17 2 12 -5 14 -3 8 7 -5 9 -4 11 3 6 15 -9 52
11 49 27 -1 7 6 12 15 12 19 0 70 44 63 55 -2 4 3 16 11 26 9 10 13 12 9 4 -4
-8 3 -4 15 9 11 13 18 31 16 38 -3 8 -1 11 4 8 6 -4 10 -70 10 -161 0 -152 0
-155 -20 -144 -11 6 -46 10 -78 8 l-57 -3 -5 -65 c-5 -64 -6 -65 -34 -65 -35
0 -51 -23 -42 -58 6 -27 6 -27 107 -27 55 0 109 5 120 10 18 10 19 6 19 -167
1 -492 0 -721 -6 -960 l-7 -263 -307 0 c-261 0 -309 2 -320 15 -10 13 -43 15
-199 13 l-186 -3 185 -2 c120 -2 188 -7 195 -15 7 -7 7 -9 -1 -5 -6 3 -193 9
-417 12 l-407 6 -20 -33 c-17 -29 -20 -48 -18 -158 l2 -125 5 130 c4 77 11
139 19 153 19 33 24 27 7 -10 -11 -25 -16 -102 -22 -299 l-8 -266 -75 18 c-66
15 -77 16 -91 3 -10 -9 -15 -24 -12 -37 4 -18 3 -20 -7 -7 -10 13 -11 12 -5
-5 4 -11 8 -49 10 -85 2 -61 2 -62 -5 -15 l-7 50 -1 -42 c-3 -70 17 -140 45
-163 14 -11 21 -20 16 -20 -5 0 -15 6 -22 12 -10 11 -12 10 -10 -2 1 -8 -4
-28 -11 -45 -7 -17 -13 -76 -14 -139 -2 -94 0 -111 17 -130 10 -11 15 -15 11
-7 -6 11 -3 13 12 6 10 -4 35 -11 54 -16 33 -8 32 -8 -9 -4 -30 2 -40 1 -30
-6 7 -5 22 -9 32 -9 10 0 28 -12 41 -26 l22 -27 315 -1 314 -2 28 28 28 28 -5
132 c-3 73 -5 142 -6 153 -1 11 5 43 13 70 11 38 17 46 22 32 17 -42 77 -54
203 -41 56 6 61 9 65 33 3 17 5 12 6 -16 1 -32 7 -46 27 -62 31 -25 20 -28
-16 -5 l-25 16 23 -21 c17 -15 31 -18 59 -14 25 4 34 3 29 -5 -3 -6 5 -23 18
-39 23 -27 28 -28 135 -31 l111 -4 2 -72 2 -71 6 90 6 90 2 -82 c1 -45 5 -89
9 -99 5 -13 3 -15 -8 -10 -8 4 -1 -4 14 -18 15 -14 39 -26 53 -26 15 0 34 -11
48 -27 l23 -27 317 1 c394 0 361 -16 361 178 l0 135 -30 26 c-21 18 -23 21 -5
10 13 -9 35 -16 48 -16 13 0 21 -4 17 -9 -3 -5 6 -22 19 -38 l24 -28 132 0
132 0 24 29 c23 26 25 36 23 104 -2 63 -6 79 -23 94 -20 18 -20 18 9 3 17 -8
41 -15 55 -16 23 -1 23 -2 -5 -9 -16 -4 -22 -8 -12 -9 10 0 29 -13 42 -29 23
-26 25 -27 131 -26 69 1 109 5 112 12 2 8 8 8 21 0 16 -10 16 -12 -7 -35 -23
-23 -24 -28 -20 -147 2 -81 -1 -122 -7 -119 -5 2 5 -9 23 -26 18 -17 41 -31
53 -31 11 0 30 -12 43 -27 l23 -26 318 0 318 0 24 27 c21 25 23 36 23 147 0
75 -4 126 -12 138 -9 15 -9 25 0 46 7 15 12 74 12 146 0 114 -1 121 -25 144
-29 30 -85 35 -85 8 -1 -11 -6 -5 -15 14 -7 17 -26 38 -42 47 -15 8 -23 15
-17 16 8 0 9 11 4 37 -4 21 -10 124 -13 229 -5 218 -12 238 -75 250 -20 4 -44
17 -54 29 -16 21 -24 22 -155 21 -799 -10 -1186 -12 -1038 -7 l180 7 -171 2
-171 2 -6 277 c-4 153 -7 459 -7 681 0 351 2 402 15 402 8 0 15 7 15 15 0 8 9
15 20 15 11 0 20 -7 20 -15 0 -12 15 -15 75 -15 l75 0 0 28 1 27 17 -27 c13
-23 24 -28 54 -28 l38 0 0 70 c0 63 2 70 20 70 18 0 20 -7 20 -71 l0 -70 43 3
42 3 3 68 c3 59 5 67 22 67 17 0 20 7 20 40 l0 40 -121 0 c-113 0 -121 -1
-126 -20 l-6 -21 -19 21 c-12 13 -31 20 -53 20 l-35 0 -1 -62 0 -63 -24 60
c-22 59 -24 60 -61 60 -31 0 -41 -5 -51 -25 -10 -21 -13 35 -13 317 l0 341
258 4 c253 4 314 12 334 42 4 6 88 -70 205 -187 l198 -198 -55 -51 c-38 -35
-43 -41 -15 -20 22 16 49 39 59 51 20 22 20 22 -29 71 -27 28 -46 50 -43 50 4
0 29 -23 56 -51 l50 -52 -61 -54 c-34 -30 -97 -79 -140 -110 -42 -30 -84 -64
-92 -76 -8 -12 -15 -16 -15 -10 0 7 4 15 10 18 6 3 10 11 10 18 0 6 -7 1 -16
-12 -12 -17 -13 -26 -5 -34 15 -15 14 -28 -1 -24 -9 1 -15 -19 -19 -63 -3 -36
-6 -57 -7 -47 -1 9 -6 25 -12 35 -5 9 -14 29 -20 45 -8 22 -15 27 -44 27 -41
0 -43 -2 -79 -100 -45 -122 -45 -120 8 -120 33 0 45 4 45 15 0 8 9 15 19 15
10 0 21 -7 25 -15 7 -20 142 -22 149 -2 4 10 6 10 6 0 1 -9 17 -13 47 -13 44
0 45 1 43 28 -2 15 -7 33 -12 39 -5 8 -6 13 -1 13 5 0 16 -10 24 -23 14 -21
16 -27 19 -47 0 -5 16 -12 34 -15 43 -8 120 -81 114 -106 -3 -10 2 -24 12 -31
15 -12 15 -11 1 7 -14 20 -14 20 7 1 13 -10 21 -22 18 -26 -2 -3 32 -42 76
-86 69 -68 83 -79 112 -77 30 2 30 1 7 -6 -21 -8 -22 -9 -5 -10 29 -1 108 -80
102 -102 -3 -11 24 -45 83 -104 48 -48 92 -87 96 -86 5 0 9 -5 9 -11 0 -9 14
-12 40 -11 37 1 38 1 10 -7 -22 -5 -24 -8 -9 -9 11 0 31 -12 44 -26 29 -31 79
-41 112 -23 14 7 70 61 126 119 83 87 99 108 89 120 -7 8 3 0 21 -16 l34 -30
-309 -302 c-169 -165 -310 -300 -313 -298 -3 2 -4 -16 -4 -40 2 -34 12 -59 50
-114 27 -38 50 -68 52 -66 2 1 -12 25 -31 52 -46 65 -70 103 -65 103 11 0 139
-200 134 -209 -4 -5 -1 -13 5 -17 8 -4 9 -3 5 4 -4 7 -5 12 -2 12 12 0 78
-109 72 -119 -4 -5 -1 -13 5 -17 8 -5 10 -2 5 7 -15 29 40 -42 57 -73 17 -32
17 -32 0 -9 -42 57 -51 62 -17 9 20 -32 39 -58 41 -58 2 0 1 5 -2 10 -3 6 -4
10 -1 10 7 0 56 -72 56 -83 0 -4 -5 -5 -12 -1 -7 4 -8 3 -4 -5 4 -6 12 -8 18
-5 7 5 9 1 5 -9 -3 -9 3 -26 14 -39 l20 -23 -17 28 c-9 15 -12 27 -8 27 5 0
14 -9 19 -20 6 -11 38 -65 73 -120 35 -55 61 -104 58 -109 -11 -17 35 -46 67
-43 25 2 28 0 17 -7 -9 -6 -10 -11 -3 -11 6 0 25 -14 41 -30 32 -32 68 -38
105 -19 34 18 191 131 205 148 18 22 15 92 -5 121 -10 14 -52 68 -93 120 -155
193 -360 464 -360 476 0 5 89 98 197 206 l198 198 115 -113 c112 -110 113
-110 25 -17 -50 52 -95 99 -100 105 -6 5 -19 21 -30 35 -10 14 36 -31 103
-100 66 -69 119 -130 117 -136 -2 -6 31 -44 73 -85 l77 -74 -75 78 c-41 42
-70 77 -64 77 5 0 34 -26 65 -58 73 -76 119 -130 94 -111 -14 11 -28 13 -45 8
-25 -7 -25 -7 4 -8 16 -1 27 -3 24 -6 -3 -3 -32 -2 -64 1 -42 5 -53 9 -39 15
17 6 17 8 3 8 -10 1 -32 14 -50 30 -42 36 -71 51 -99 51 -19 0 -20 -2 -8 -17
8 -10 -7 1 -33 25 -26 23 -51 42 -55 42 -5 0 -24 -9 -43 -20 -27 -16 -30 -17
-14 -3 12 10 30 24 40 31 11 7 6 6 -11 -2 -42 -20 -192 -175 -199 -206 -4 -19
-2 -17 9 7 8 17 19 34 24 38 6 3 4 -7 -4 -22 -21 -40 -19 -51 18 -86 21 -20
25 -26 10 -18 -12 6 -29 21 -37 33 -9 12 -16 18 -16 12 0 -17 40 -48 148 -114
181 -110 306 -150 471 -150 182 0 331 62 454 188 125 130 171 251 172 457 0
99 -4 133 -23 195 -29 93 -55 150 -95 215 -40 63 -64 85 -94 85 -15 0 -37 14
-57 35 -37 39 -75 46 -97 18 -11 -15 -11 -16 1 -6 24 22 60 15 91 -18 16 -17
29 -36 28 -43 0 -6 -6 -2 -12 8 -46 74 -76 73 -152 -4 -76 -77 -97 -79 -25 -2
30 31 16 19 -33 -28 -48 -46 -87 -88 -87 -92 0 -4 15 7 33 25 17 18 22 21 10
7 -35 -40 -29 -71 22 -126 62 -66 96 -138 100 -216 l4 -63 -9 64 c-11 79 -48
157 -99 208 -21 21 -43 47 -49 58 -6 11 -12 14 -12 7 0 -7 20 -34 45 -60 48
-49 89 -123 100 -181 6 -27 5 -32 -8 -25 -8 5 -90 82 -183 172 l-169 162 206
206 205 205 89 -67 c50 -37 81 -57 70 -44 -15 18 -9 16 25 -9 25 -18 62 -45
82 -60 21 -14 37 -30 38 -35 0 -4 -21 9 -47 30 -67 53 -73 57 -73 52 0 -11
116 -95 127 -91 6 2 15 -1 19 -8 5 -8 3 -10 -7 -4 -12 8 -12 6 0 -8 15 -18 26
-23 16 -7 -3 6 -3 10 0 10 9 0 155 -120 155 -127 0 -4 -10 2 -22 13 -13 11
-32 26 -43 33 -11 8 -2 -2 20 -21 22 -20 45 -34 51 -31 7 2 15 -1 20 -8 5 -8
3 -10 -7 -4 -8 5 -5 -1 5 -13 21 -25 36 -31 16 -7 -7 8 -8 15 -2 15 12 0 34
-25 27 -32 -3 -3 7 -4 22 -2 15 2 20 1 10 -2 -15 -5 -8 -13 34 -40 96 -61 112
-52 232 124 62 90 71 130 39 168 -9 12 -73 56 -142 99 -158 98 -333 212 -525
340 -125 84 -345 214 -266 158 57 -41 62 -51 8 -17 -106 68 -86 80 -412 -251
-157 -160 -284 -285 -283 -280 0 6 -3 19 -7 29 -7 16 12 39 108 133 64 62 119
124 123 138 10 40 -6 67 -95 158 -97 100 -134 125 -157 106 -12 -10 -19 -7
-39 11 -37 35 -30 48 8 14 l32 -29 -28 31 c-20 23 -35 30 -50 27 -13 -3 -18
-1 -12 4 6 4 10 15 9 23 0 8 -2 24 -2 34 -3 30 -189 214 -226 222 -33 7 -100
61 -102 82 -1 6 -2 19 -2 28 -2 22 -180 203 -211 215 -16 6 -28 6 -38 -2 -11
-9 -19 -7 -38 11 -37 35 -30 48 8 14 l32 -29 -34 38 c-19 20 -40 37 -45 37 -6
0 -5 -4 3 -9 10 -6 2 -9 -23 -8 -35 1 -36 2 -14 14 13 7 19 12 13 12 -14 1
-40 -17 -40 -26 -1 -16 -58 -92 -66 -88 -4 3 -11 0 -15 -6 -4 -8 -3 -9 4 -5 7
4 12 4 12 -1 0 -10 -139 -173 -148 -173 -3 0 -1 5 5 11 7 7 -69 87 -258 271
l-269 260 0 53 c0 43 8 68 39 127 40 75 83 199 96 276 4 24 12 45 19 48 6 2
191 1 410 -3 379 -8 401 -7 425 10 14 10 11 5 -7 -11 -36 -32 -123 -64 -175
-64 -17 0 -60 7 -95 16 -92 24 -101 16 -170 -154 -44 -111 -35 -152 38 -164
l35 -5 -37 12 c-20 7 -43 18 -50 26 -11 12 -10 12 2 5 8 -5 31 -14 50 -20 19
-6 34 -15 33 -21 -5 -23 48 -56 109 -69 188 -40 417 22 557 151 l59 56 7 -73
c4 -40 2 -110 -4 -155 -6 -46 -8 -91 -5 -100 5 -16 4 -16 -5 -2 -7 12 -7 42 0
104 6 47 8 89 5 92 -3 4 -6 -2 -6 -13 0 -10 -5 -52 -10 -92 -10 -75 -2 -114
22 -109 7 1 12 -4 13 -12 0 -8 7 -16 15 -18 13 -4 13 -3 0 7 -13 10 -12 11 3
6 10 -3 35 -7 55 -7 l37 -2 -40 -7 c-22 -4 -32 -8 -22 -9 11 0 32 -14 47 -31
l28 -30 136 0 c132 0 138 1 161 25 29 28 31 55 15 205 -6 52 -13 153 -16 224
-2 71 -8 135 -12 141 -8 12 11 -8 68 -76 21 -26 66 -67 99 -92 33 -24 58 -47
56 -49 -3 -3 34 -28 82 -57 90 -53 212 -98 295 -108 39 -5 47 -3 51 13 3 11 5
-54 5 -144 -1 -157 0 -164 22 -187 13 -14 34 -25 48 -25 14 0 36 -12 51 -29
31 -33 34 -34 321 -51 201 -11 358 -23 604 -46 217 -19 251 -19 276 6 25 25
28 40 34 170 6 139 -16 190 -81 190 -11 0 -32 14 -48 30 -16 17 -33 30 -38 30
-5 0 5 -12 22 -26 17 -14 31 -33 30 -42 0 -13 -3 -11 -9 4 -21 54 -23 54 -455
56 l-400 3 400 5 400 5 -381 3 -381 2 -6 152 c-4 83 -7 191 -7 240 l0 90 203
-6 c111 -3 313 -8 449 -12 l247 -6 25 25 c26 26 26 28 26 182 0 152 -1 156
-25 180 -26 27 -85 35 -85 13 -1 -7 -7 -1 -16 14 -24 44 -44 50 -172 44 -185
-9 -677 -18 -671 -12 2 3 126 8 274 11 149 3 327 8 398 11 l127 5 30 -30 c17
-16 30 -26 30 -21 0 4 -14 20 -31 35 -32 26 -33 26 -158 21 -69 -3 -245 -8
-390 -11 l-264 -6 5 231 c3 127 9 234 13 238 3 4 201 8 438 10 238 1 442 5
455 8 40 8 51 54 45 192 -7 141 -17 163 -82 180 -34 8 -41 7 -45 -7 -3 -9 -4
-5 -3 9 1 14 -1 30 -5 35 -4 7 -65 6 -185 -2 -98 -7 -197 -12 -220 -12 -114 4
-158 3 -288 -4 -77 -5 -165 -12 -195 -17 -47 -8 -43 -8 30 -4 47 3 114 7 150
9 36 2 108 6 160 9 78 4 85 3 35 -4 -33 -4 -119 -11 -191 -15 -72 -4 -155 -10
-185 -14 -30 -4 -76 -3 -104 2 -27 5 -77 6 -110 3 -49 -5 -65 -12 -92 -38 -18
-18 -33 -35 -33 -40 0 -4 15 8 33 28 31 34 35 35 112 39 l80 4 -79 -9 c-65 -8
-85 -14 -105 -35 -25 -24 -26 -32 -33 -183 -3 -86 -7 -176 -7 -198 -1 -39 -2
-41 -28 -36 -14 3 -36 16 -48 30 -18 20 -32 26 -68 27 -25 0 -41 -3 -34 -7 6
-4 -1 -9 -19 -13 -91 -21 -253 -90 -269 -115 -3 -5 -11 -10 -16 -10 -6 0 -7 6
-3 13 12 18 -23 -9 -83 -67 -29 -28 -53 -54 -53 -59 0 -5 9 1 20 14 10 13 19
20 19 14 0 -5 -16 -28 -36 -50 -19 -22 -31 -31 -26 -20 6 11 11 49 12 85 1 36
6 103 11 150 15 132 13 174 -9 194 -26 23 -88 38 -96 22 -3 -6 -3 -1 -1 11 2
12 -1 26 -8 31 -6 5 -75 10 -153 11 -142 3 -142 3 -168 -24 -22 -21 -26 -32
-21 -63 14 -86 27 -256 31 -387 l3 -140 -8 148 c-5 82 -11 151 -14 155 -4 3
-4 -46 0 -109 l7 -114 -59 55 c-70 66 -96 84 -189 134 -42 22 -60 28 -45 16
20 -18 16 -17 -21 4 -43 25 -134 59 -189 72 -14 4 -64 9 -112 11 -85 5 -87 4
-104 -22 -16 -25 -16 -31 6 -133 12 -59 27 -118 32 -132 5 -13 6 -21 1 -17 -4
5 -14 23 -21 40 l-12 32 6 -30 c7 -39 22 -55 41 -48 10 4 14 2 9 -5 -6 -11 36
-3 66 13 7 4 4 -1 -6 -9 -11 -9 -14 -16 -8 -16 7 0 12 -6 12 -13 0 -8 8 -21
18 -30 15 -14 35 -16 124 -12 93 4 107 3 122 -13 11 -13 12 -19 4 -19 -7 0
-211 -3 -453 -8 l-440 -7 -23 78 c-26 88 -79 204 -125 272 l-31 46 234 229
c129 126 234 235 232 241 -2 6 8 0 22 -13 32 -30 34 -41 4 -15 -21 17 -21 16
1 -9 25 -28 38 -36 25 -16 -4 7 -1 10 7 7 8 -3 13 -10 12 -16 -1 -5 6 -8 17
-5 10 3 27 0 37 -6 15 -9 13 -10 -12 -6 -25 5 -27 4 -9 -4 12 -5 25 -14 29
-20 3 -6 25 -21 47 -32 33 -17 42 -18 50 -7 6 8 7 5 2 -12 -10 -34 -10 -45 -3
-45 4 0 15 -7 25 -16 11 -9 40 -26 67 -37 26 -12 47 -24 47 -27 0 -3 -9 -1
-19 5 -33 17 -34 11 -4 -14 32 -27 222 -116 247 -116 10 0 30 13 45 28 54 53
96 314 80 487 -13 148 -62 312 -103 347 -17 15 -14 15 18 -3 22 -11 52 -34 67
-50 29 -31 65 -37 102 -18 35 19 167 159 173 185 11 43 -14 78 -92 132 -65 46
-90 72 -67 72 4 0 43 -15 88 -34 112 -48 236 -70 355 -62 98 6 191 26 215 46
26 22 28 74 5 127 -12 28 -22 58 -24 67 -1 9 -18 33 -37 54 -19 21 32 -29 114
-110 81 -82 162 -155 180 -163 23 -10 27 -14 12 -15 -19 0 -19 -1 1 -13 12 -6
34 -21 49 -31 50 -36 90 -25 159 41 286 274 350 334 649 607 118 109 135 134
122 183 -7 30 -146 178 -187 199 -34 18 -62 18 -52 2 4 -7 -5 -2 -19 11 -33
30 -36 42 -4 15 l22 -19 -19 22 c-10 13 -23 20 -27 17 -5 -3 -17 0 -26 6 -17
11 -17 11 0 6 10 -3 16 -2 12 3 -3 5 -21 8 -41 6 -27 -2 -47 -14 -85 -51 -27
-26 -46 -50 -44 -53 3 -2 27 19 53 47 27 29 55 52 63 52 9 -1 6 -5 -7 -13 -12
-7 -84 -79 -159 -162 -153 -167 -233 -249 -137 -140 220 250 215 245 -100 -93
l-199 -212 -145 137 c-79 76 -144 143 -144 148 0 6 142 146 315 313 l315 304
0 44 c0 44 -3 48 -99 144 -92 92 -135 121 -160 106 -5 -4 -18 2 -28 12 -27 29
-61 44 -83 37 -11 -3 -97 -86 -191 -183 -104 -106 -128 -129 -62 -57 61 66
143 151 182 188 39 38 65 67 59 65 -6 -2 -117 -114 -247 -249 -129 -134 -205
-215 -168 -179 119 115 71 50 -63 -86 -72 -72 -129 -126 -127 -120 2 6 -60 75
-137 154 -78 79 -141 149 -141 155 0 11 415 408 510 488 102 85 125 115 125
158 0 39 -6 47 -95 136 -63 63 -102 95 -117 95 -12 0 -38 15 -57 33 -18 17
-32 28 -28 22 3 -6 -12 -10 -38 -10 -25 0 -41 4 -38 10 7 14 -111 -108 -245
-253 -63 -67 -109 -122 -104 -122 5 0 48 45 97 100 48 55 90 98 93 96 3 -3
-56 -70 -130 -148 -74 -79 -175 -186 -224 -238 -49 -52 -111 -115 -139 -140
-27 -24 2 10 65 75 63 66 140 147 170 180 30 33 -21 -18 -115 -114 -93 -96
-169 -180 -168 -186 2 -6 -14 -27 -35 -46 l-37 -34 35 40 35 40 -43 -40 c-41
-38 -53 -53 -32 -40 10 6 7 -21 -6 -63 -4 -15 21 -41 202 -213 104 -98 97 -91
-33 37 -89 89 -163 164 -163 168 0 3 99 -92 220 -211 121 -119 220 -218 220
-221 0 -4 -18 12 -40 33 -43 42 -55 39 -17 -4 l22 -26 -25 21 c-14 12 -62 40
-107 63 -46 23 -83 43 -83 46 0 3 35 -13 78 -34 55 -28 79 -35 79 -26 0 8 -4
12 -8 9 -5 -2 -37 10 -71 27 -35 18 -76 32 -93 33 -19 1 -29 6 -27 14 2 10 -2
10 -18 2 -11 -6 -19 -16 -17 -23 1 -7 -4 -11 -10 -10 -7 2 -20 -11 -28 -27
-19 -38 -11 -40 10 -2 9 15 13 18 9 7 -39 -114 -48 -325 -19 -435 9 -36 32
-98 51 -139 43 -94 43 -105 -1 -21 -19 36 -34 59 -35 53 0 -25 -44 -13 -72 20
-16 17 -27 27 -24 22 2 -6 -11 -10 -34 -10 -21 0 -36 4 -33 9 4 5 1 6 -6 2 -7
-5 -10 -11 -6 -14 3 -3 -31 -42 -75 -87 -96 -96 -111 -132 -72 -167 14 -12 22
-17 18 -10 -11 18 9 15 25 -5 12 -14 12 -16 0 -8 -9 5 -12 4 -7 -3 4 -6 13 -9
20 -6 10 4 62 -30 125 -83 3 -2 -3 -10 -12 -18 -9 -9 -15 -12 -12 -8 5 6 -108
73 -123 73 -4 0 17 -14 46 -31 28 -17 52 -32 52 -34 0 -2 -35 14 -77 35 -43
21 -98 43 -122 50 -23 6 -41 13 -39 16 3 2 27 -3 53 -11 27 -8 51 -13 53 -11
7 8 -72 29 -117 31 -25 1 -94 8 -153 15 -86 11 -127 11 -205 1 -101 -12 -241
-50 -305 -82 -55 -28 -60 -22 -8 7 40 22 38 25 -5 8 -13 -5 -15 13 -15 130 0
132 -1 138 -25 161 -26 27 -85 35 -85 13 -1 -7 -7 -1 -16 14 -24 45 -43 50
-140 33 -48 -8 -103 -15 -123 -15 l-36 0 3 45 4 45 67 -5 c36 -4 114 -13 172
-21 115 -15 150 -10 168 25 6 11 11 81 11 164 0 165 -7 183 -72 194 -33 5 -38
3 -39 -13 0 -18 -1 -18 -9 1 -12 28 -12 43 1 25 9 -13 10 -13 6 0 -2 8 -10 15
-18 15 -8 0 -14 6 -14 14 0 8 -7 16 -15 18 -13 4 -13 3 0 -7 13 -10 13 -11 -2
-6 -9 2 -31 1 -47 -4 -19 -5 -33 -5 -37 1 -5 9 -55 6 -141 -7 l-33 -5 0 51 0
51 58 -6 c31 -4 102 -16 157 -27 159 -33 151 -33 179 -5 25 26 26 29 26 166 0
180 -5 191 -88 211 -29 7 -33 6 -28 -8 4 -10 -3 -6 -14 8 -24 31 -26 47 -2 29
14 -11 15 -11 5 1 -10 11 -45 13 -165 11 -84 -1 -150 0 -147 3 2 3 67 6 142 7
76 1 135 4 132 7 -2 3 -61 4 -130 3 l-125 -2 0 45 c0 26 5 46 13 49 6 3 192 2
412 0 399 -5 400 -5 422 16 13 12 25 32 27 44 2 12 9 207 16 432 6 226 15 470
20 542 6 90 6 143 -2 163 -17 49 -101 81 -111 43 -4 -16 -5 -16 -6 1 0 11 -9
29 -18 40 l-18 21 25 -20 c21 -16 22 -16 9 -1 -15 16 -33 18 -155 17 -75 -1
-146 -7 -156 -12 -34 -18 -38 -51 -28 -271 5 -117 12 -315 15 -440 l7 -228
-244 2 -243 3 238 2 238 3 -7 253 c-4 138 -10 290 -14 337 -9 91 -9 90 6 -382
l6 -198 -221 0 -222 0 6 168 c4 92 10 245 16 341 15 286 13 328 -16 356 -29
30 -81 34 -88 8 -4 -16 -5 -16 -6 1 0 11 -9 29 -18 40 l-18 21 25 -20 25 -20
-17 20 c-16 19 -25 20 -177 15 -132 -4 -163 -8 -177 -22 -15 -15 -16 -37 -5
-265 15 -322 15 -295 9 -468 -3 -82 -2 -114 1 -70 l7 80 2 -80 c1 -44 5 -90 8
-102 l6 -23 -243 2 -244 3 238 2 c130 2 237 7 237 11 0 4 -104 6 -231 4 l-230
-3 6 173 c3 95 10 250 15 343 5 94 10 203 10 243 0 68 -2 76 -29 103 -16 16
-40 29 -53 29 -14 0 -37 13 -53 30 -16 17 -36 30 -44 29 -11 0 -9 -3 5 -9z m8
-58 c2 -4 -4 -210 -14 -457 -11 -279 -14 -457 -8 -467 8 -17 34 -18 327 -18
359 0 348 -2 337 72 -3 24 -11 178 -16 343 -5 165 -12 353 -16 418 l-7 117
148 0 148 0 -8 -127 c-14 -236 -16 -277 -22 -535 -5 -201 -3 -261 7 -273 19
-22 621 -23 640 0 13 16 10 221 -10 694 -7 154 -6 218 1 228 9 9 45 13 136 13
l125 0 -7 -197 c-3 -109 -11 -259 -16 -333 -5 -74 -9 -236 -9 -360 0 -124 -4
-231 -9 -239 -10 -16 -35 -16 -541 -5 -266 6 -307 5 -318 -9 -9 -10 -12 -50
-10 -138 l3 -124 193 -2 c106 0 199 -4 207 -7 12 -4 15 -30 15 -141 0 -130 -1
-135 -21 -135 -11 0 -28 4 -37 9 -24 13 -260 51 -314 51 l-46 0 -4 -127 c-3
-71 -3 -134 0 -140 7 -22 186 -15 352 13 73 12 70 19 70 -130 0 -74 -4 -137
-9 -141 -6 -3 -41 -1 -78 5 -37 6 -81 13 -98 14 -132 14 -197 18 -219 12 l-27
-7 3 -122 3 -122 115 3 c63 1 155 9 203 17 49 8 93 13 98 10 5 -4 9 -67 9
-142 l0 -136 -57 6 c-32 3 -121 13 -197 22 -76 8 -147 13 -157 10 -18 -6 -19
-26 -17 -513 l3 -506 25 -12 c14 -7 54 -18 90 -24 113 -20 264 -89 386 -175
19 -14 41 5 459 425 242 242 443 447 449 457 13 23 -17 45 -117 84 -78 32 -88
33 -217 33 -124 0 -142 -3 -222 -31 -106 -37 -178 -79 -264 -155 -36 -32 -68
-58 -72 -58 -11 0 -162 154 -162 166 0 33 189 147 328 197 138 50 200 61 342
61 199 0 333 -37 487 -135 l31 -20 37 32 c24 21 35 39 33 53 -2 13 -37 47 -91
87 -49 37 -94 72 -99 77 -8 8 12 35 67 92 43 44 84 80 91 80 7 0 32 -28 55
-62 50 -73 107 -138 122 -138 6 0 24 12 39 27 37 36 36 68 -6 152 -79 155 -91
322 -41 539 3 13 13 22 24 22 16 0 211 -97 211 -105 0 -1 -14 -34 -32 -71 -41
-87 -48 -167 -23 -259 29 -107 28 -108 183 55 75 78 138 146 140 150 1 4 -130
137 -293 295 -273 267 -313 313 -286 329 18 11 409 424 576 609 94 103 177
187 185 187 20 0 180 -161 180 -182 0 -9 -8 -23 -19 -30 -58 -41 -651 -596
-651 -610 0 -5 96 -108 213 -229 161 -167 217 -219 233 -217 13 2 142 129 329
323 168 176 314 324 322 329 12 6 39 -16 117 -93 l101 -101 -115 -113 c-63
-61 -212 -204 -330 -316 -118 -112 -219 -212 -224 -223 -8 -16 22 -50 210
-233 120 -118 226 -214 235 -214 9 -1 76 63 150 142 204 215 402 430 439 475
18 23 39 43 47 47 17 6 193 -159 193 -181 0 -7 -35 -43 -77 -81 -125 -111
-214 -194 -481 -448 -139 -132 -259 -241 -266 -243 -7 -2 -142 130 -301 293
-158 162 -292 295 -297 295 -14 0 -288 -263 -288 -276 0 -28 138 -59 219 -49
31 4 82 18 115 32 32 13 64 22 70 20 7 -3 32 -51 56 -107 52 -123 53 -121 -80
-140 -160 -23 -309 2 -453 78 l-68 35 -40 -39 c-21 -21 -39 -43 -39 -49 0 -16
54 -64 133 -119 37 -26 67 -51 67 -55 0 -3 -38 -44 -84 -90 l-84 -83 -73 98
c-91 120 -100 126 -134 94 -48 -44 -48 -52 -3 -136 57 -109 94 -216 109 -314
14 -101 7 -289 -16 -375 -9 -33 -20 -77 -26 -97 -6 -22 -16 -38 -25 -38 -22 0
-214 99 -214 110 0 6 11 32 24 58 55 109 78 258 57 377 -14 79 -68 225 -83
225 -5 0 -22 -9 -36 -21 -42 -32 -872 -860 -872 -869 0 -4 20 -36 44 -71 24
-35 52 -82 63 -104 33 -63 80 -205 88 -262 12 -94 -42 -87 581 -77 536 9 549
9 546 29 -6 34 -60 102 -109 138 -28 20 -75 42 -112 52 -58 15 -66 15 -113 -1
-27 -9 -53 -12 -58 -8 -7 9 -50 197 -50 222 0 18 123 15 195 -4 168 -43 326
-164 389 -298 18 -39 38 -83 45 -98 9 -25 15 -28 60 -28 27 0 53 5 56 11 4 6
7 70 6 142 -1 123 -8 210 -31 426 -8 65 -7 87 3 93 19 12 241 10 254 -3 7 -7
8 -22 3 -42 -10 -38 -29 -281 -37 -463 -5 -114 -3 -132 11 -147 20 -19 58 -22
87 -7 10 6 38 48 60 93 55 109 101 169 174 224 75 57 157 96 260 123 75 20 80
20 92 4 18 -24 18 -208 1 -222 -7 -5 -42 -12 -78 -15 -94 -8 -134 -23 -192
-70 -62 -51 -117 -125 -101 -135 15 -10 539 1 550 11 10 11 10 65 0 475 -5
212 -4 328 2 341 12 22 43 29 176 36 55 3 116 7 135 10 19 2 85 7 145 10 61 3
135 8 165 11 72 7 130 11 334 25 141 10 170 9 177 -2 5 -8 9 -66 9 -130 l0
-117 -457 -4 c-252 -3 -466 -8 -475 -12 -17 -8 -18 -33 -18 -328 l0 -320 408
8 c224 5 436 9 472 9 l65 0 3 -139 c1 -77 -1 -143 -6 -148 -6 -6 -196 -5 -459
2 -248 6 -458 8 -467 4 -14 -5 -16 -38 -16 -318 0 -229 3 -315 12 -324 9 -9
125 -12 459 -12 246 0 454 -3 463 -6 24 -9 24 -252 0 -261 -13 -5 -136 3 -349
23 -46 4 -253 20 -400 30 -55 4 -104 7 -108 5 -25 -6 -252 21 -265 32 -13 10
-14 55 -8 317 4 168 7 348 7 400 2 137 18 130 -302 130 -206 0 -259 -3 -259
-13 0 -21 99 -125 143 -151 52 -30 115 -47 187 -51 l55 -3 3 -110 c3 -137 0
-142 -94 -118 -143 36 -286 121 -360 214 -25 31 -63 94 -84 138 -42 87 -69
109 -126 102 l-29 -3 0 -130 c0 -71 7 -204 15 -295 8 -91 14 -183 15 -205 l0
-40 -130 0 -130 0 1 25 c0 14 7 88 15 165 8 77 14 216 14 310 l0 170 -46 3
c-52 3 -58 -2 -83 -73 -38 -106 -100 -193 -180 -254 -65 -48 -101 -67 -184
-94 -133 -43 -375 -22 -359 30 9 29 79 187 87 196 4 5 33 1 65 -8 143 -42 290
9 365 125 53 83 97 76 -517 83 -614 7 -565 13 -577 -70 -16 -118 -87 -291
-162 -395 l-35 -49 66 -72 c126 -139 655 -649 669 -644 22 9 172 189 238 287
l16 25 101 -100 c56 -55 100 -103 99 -106 -2 -4 -48 -41 -103 -82 -55 -42
-125 -99 -155 -126 l-55 -50 93 -93 93 -93 50 55 c42 46 110 132 193 245 14
19 19 16 115 -80 56 -55 101 -102 101 -105 0 -3 -27 -25 -60 -49 -100 -70
-240 -192 -240 -208 0 -16 173 -186 195 -191 15 -4 155 179 189 247 42 81 41
82 150 -28 54 -54 97 -103 95 -108 -2 -6 -63 -65 -136 -132 -72 -67 -133 -128
-136 -135 -6 -14 165 -186 185 -186 13 0 106 93 408 408 110 113 203 202 213
202 9 0 79 -42 155 -93 113 -77 458 -301 602 -392 19 -12 54 -34 78 -48 23
-15 42 -33 42 -40 0 -16 -130 -197 -151 -210 -12 -8 -23 -5 -42 9 -13 10 -60
47 -103 81 -255 200 -513 397 -543 413 -21 11 -32 2 -154 -117 -73 -71 -183
-179 -246 -240 -98 -96 -112 -113 -103 -130 6 -11 68 -73 139 -138 70 -66 197
-186 281 -269 120 -117 155 -147 165 -137 8 8 12 47 11 114 0 90 -3 109 -27
157 -15 31 -47 79 -72 107 -25 28 -45 57 -45 65 1 15 153 158 169 158 26 0
105 -147 143 -270 28 -86 29 -258 4 -345 -60 -201 -213 -349 -411 -400 -85
-22 -225 -19 -319 5 -110 29 -286 121 -286 149 0 6 131 140 165 170 3 2 27
-17 54 -42 92 -86 199 -122 330 -110 34 3 61 10 61 16 0 12 -46 62 -228 252
-255 265 -326 335 -336 335 -13 0 -467 -464 -480 -490 -8 -19 0 -31 175 -260
101 -133 168 -218 235 -300 85 -105 88 -113 61 -137 -42 -37 -186 -133 -201
-133 -8 0 -42 46 -77 103 -34 56 -156 243 -271 415 -114 173 -208 319 -208
326 0 13 172 185 448 445 94 90 172 171 172 181 0 9 -38 56 -85 104 -70 71
-88 85 -103 77 -10 -5 -65 -60 -122 -123 -114 -124 -129 -138 -145 -138 -13 0
-195 179 -195 192 0 4 12 15 28 24 71 44 220 147 250 173 19 16 32 36 30 45
-5 26 -178 195 -193 189 -19 -7 -112 -116 -183 -214 -31 -44 -62 -79 -69 -79
-6 0 -55 44 -107 98 l-96 97 27 20 c163 122 183 138 250 202 24 22 32 37 26
47 -17 29 -154 166 -167 166 -16 0 -116 -114 -193 -221 -32 -43 -63 -79 -69
-79 -16 0 -194 180 -194 196 0 7 9 18 20 24 69 37 280 216 280 238 0 14 -696
722 -710 722 -4 0 -44 -25 -90 -55 -95 -62 -232 -119 -338 -138 -40 -8 -75
-17 -79 -20 -7 -8 -6 -1029 3 -1577 3 -206 6 -480 7 -608 2 -195 4 -234 17
-242 21 -13 682 -13 1098 1 295 10 346 10 358 -3 11 -11 16 -74 23 -297 5
-155 13 -287 18 -292 5 -5 33 -4 68 2 110 20 100 30 103 -103 3 -136 9 -130
-100 -104 -71 17 -77 11 -69 -67 10 -80 19 -86 86 -58 30 13 61 21 69 18 10
-4 13 -30 11 -114 -2 -59 -3 -110 -4 -113 -1 -3 -137 -5 -304 -4 l-302 0 -3
109 c-1 60 -1 114 2 121 3 8 21 6 65 -10 82 -28 96 -20 96 60 l0 59 -30 -1
c-16 0 -54 -4 -82 -9 l-53 -8 0 116 c0 64 4 118 9 121 4 3 41 -1 81 -10 40 -8
76 -11 80 -7 4 4 10 87 14 184 5 156 4 178 -10 183 -9 3 -85 6 -169 6 -145 0
-154 -1 -160 -20 -10 -31 1 -39 45 -33 l40 6 0 -56 c0 -60 -9 -70 -49 -55 -31
11 -44 -2 -43 -43 1 -42 14 -54 42 -39 41 22 51 7 48 -72 l-3 -73 -34 0 -35 0
3 -62 2 -63 -43 0 c-24 0 -66 -3 -94 -6 -66 -8 -86 9 -73 63 16 68 13 74 -28
71 l-38 -3 -3 73 c-3 79 4 90 50 73 33 -13 44 -3 45 41 1 42 -14 52 -54 37
-36 -13 -45 -1 -41 57 l3 49 40 0 c31 0 40 4 43 19 9 43 -13 46 -369 46 -371
0 -363 1 -357 -62 l3 -33 250 0 c138 0 255 -3 261 -7 7 -5 14 -66 18 -160 4
-84 12 -204 17 -267 7 -84 6 -117 -2 -128 -9 -10 -37 -13 -123 -11 l-111 3 1
65 c0 79 14 274 20 279 2 2 -1 12 -7 22 -9 17 -24 19 -163 19 -170 0 -168 1
-157 -65 6 -39 7 -40 46 -37 22 2 52 8 68 14 47 18 57 0 57 -112 0 -114 -8
-127 -68 -115 -20 4 -50 8 -67 9 -30 1 -30 1 -33 -60 -4 -83 6 -90 88 -63 51
17 65 18 71 7 11 -16 12 -199 1 -213 -4 -6 -119 -10 -310 -10 l-302 0 0 124
c0 113 1 123 18 116 9 -4 41 -16 71 -26 66 -23 71 -19 71 70 l0 64 -40 -7
c-22 -3 -58 -9 -80 -12 l-40 -7 0 122 c0 128 3 136 48 112 9 -5 37 -10 62 -12
45 -4 45 -4 51 31 10 68 5 70 -155 70 -104 0 -146 -4 -154 -13 -10 -12 -2
-220 13 -312 10 -60 -2 -66 -131 -63 l-109 3 0 60 c1 102 16 448 21 481 l4 31
258 -1 257 -1 3 33 c6 61 1 62 -222 61 -110 -1 -271 -4 -356 -8 -146 -6 -155
-7 -155 -26 0 -16 8 -21 43 -23 l42 -3 0 -60 c0 -59 0 -59 -25 -53 -57 14 -60
12 -60 -36 0 -39 2 -45 20 -42 63 10 60 13 60 -68 l0 -75 -32 2 c-40 4 -44 -3
-32 -56 6 -29 6 -47 -1 -56 -14 -17 -178 -29 -197 -14 -10 9 -12 26 -7 72 l7
60 -37 -7 -37 -7 3 78 c3 84 0 81 63 71 18 -3 20 3 20 42 l0 45 -40 1 -40 1
-3 53 -3 53 40 -7 c40 -6 41 -6 41 24 l0 30 -162 -2 -163 -3 1 -178 c0 -97 5
-182 10 -187 6 -6 37 -5 82 2 40 6 76 8 79 4 11 -11 21 -180 12 -205 -8 -21
-13 -22 -52 -17 -23 4 -60 8 -82 9 l-40 2 4 -50 c2 -27 7 -60 12 -72 8 -22 9
-22 56 -7 26 9 60 18 76 21 l27 5 0 -110 c0 -76 -4 -112 -12 -119 -14 -9 -589
-10 -605 0 -11 7 -11 206 -1 223 5 7 28 4 75 -12 49 -16 71 -20 80 -12 16 13
18 124 3 133 -6 4 -42 1 -81 -6 -53 -9 -72 -10 -78 -1 -8 14 -7 220 2 228 3 3
38 -1 77 -10 51 -12 76 -14 85 -6 9 7 14 86 19 293 6 219 11 285 21 296 12 13
91 13 572 2 307 -6 632 -10 723 -9 l165 3 6 240 c4 132 10 575 13 985 3 410 8
844 12 965 3 126 2 226 -4 233 -5 7 -49 21 -98 31 -95 20 -230 70 -275 102
-15 10 -30 19 -34 19 -4 0 -24 14 -45 30 -68 54 31 143 -1017 -921 -117 -118
-213 -223 -213 -231 0 -21 101 -55 185 -64 170 -17 362 83 436 228 11 22 26
41 33 44 12 5 190 -76 209 -95 15 -15 -2 -49 -60 -117 -68 -81 -142 -136 -247
-184 -109 -51 -172 -64 -296 -64 -134 -1 -211 17 -318 70 l-85 43 -68 -66
c-58 -56 -67 -69 -56 -81 17 -21 134 -96 180 -115 20 -9 37 -20 37 -26 0 -15
-181 -191 -197 -191 -7 0 -53 41 -102 92 l-88 92 -57 -55 c-31 -31 -56 -65
-56 -75 0 -12 108 -122 275 -284 154 -148 275 -273 275 -282 0 -10 -44 -75
-98 -145 -237 -310 -207 -270 -415 -560 -71 -98 -137 -179 -147 -181 -10 -2
-45 20 -81 50 -35 30 -79 64 -96 77 -18 12 -33 30 -33 39 0 10 37 58 81 107
45 50 116 130 158 179 42 49 119 139 171 200 143 167 170 203 170 223 0 18
-396 423 -415 423 -16 0 -125 -123 -125 -141 0 -22 66 -82 169 -154 l83 -58
-102 -101 -102 -101 -23 30 c-13 17 -57 72 -97 124 -40 52 -78 96 -84 98 -13
4 -94 -77 -109 -109 -8 -17 1 -29 58 -84 37 -36 67 -69 67 -74 0 -6 -36 -46
-79 -90 -85 -86 -100 -91 -122 -37 -21 55 -63 117 -79 117 -9 0 -34 -18 -55
-40 -21 -22 -44 -40 -50 -40 -6 0 -55 45 -110 100 l-99 100 47 48 c26 26 47
52 47 58 0 10 -82 62 -132 85 -16 7 -28 15 -28 18 0 4 38 45 85 91 l86 85 65
-67 c37 -38 72 -68 80 -68 23 0 104 85 104 109 0 27 -27 52 -147 142 -51 38
-93 72 -93 76 0 12 184 193 195 193 6 0 33 -30 60 -67 82 -115 139 -183 155
-183 8 0 46 30 84 67 l69 66 -221 220 -220 219 -103 -83 c-304 -247 -499 -410
-571 -476 -58 -53 -79 -54 -108 -7 -13 19 -47 65 -77 101 -29 37 -52 71 -50
77 3 9 373 276 478 344 14 9 116 84 227 165 129 95 209 147 221 145 11 -2 137
-124 281 -273 144 -148 269 -274 277 -279 12 -6 31 7 77 53 l61 62 -92 89
c-51 49 -93 95 -93 102 0 13 179 198 192 198 4 0 21 -28 38 -62 32 -65 105
-168 118 -168 4 0 35 26 70 58 71 66 78 94 38 152 -72 107 -94 316 -51 486 35
136 147 314 248 394 39 31 53 38 63 29 16 -13 114 -184 114 -197 0 -5 -19 -17
-42 -28 -68 -29 -161 -125 -193 -197 -32 -70 -45 -187 -32 -276 9 -63 44 -151
60 -151 12 0 169 154 814 794 l382 380 -23 30 c-81 109 -145 255 -172 394 -8
42 -20 82 -27 89 -9 9 -232 10 -1007 2 -1584 -15 -1437 -12 -1456 -31 -16 -16
-17 -58 -6 -647 6 -347 9 -637 6 -646 -4 -8 -16 -17 -28 -19 -33 -7 -930 -34
-938 -29 -5 2 -8 67 -8 143 0 128 2 139 19 145 10 3 86 1 168 -4 81 -6 236
-13 343 -17 159 -5 198 -4 206 7 7 8 14 92 18 200 6 159 4 188 -8 199 -38 30
-503 16 -663 -21 -84 -20 -83 -22 -83 155 0 85 4 157 9 160 4 3 59 -4 122 -15
156 -28 573 -39 604 -16 19 14 20 29 23 213 l3 197 -374 -6 c-335 -6 -376 -5
-381 9 -3 9 -6 71 -6 139 0 92 3 125 14 134 9 8 56 10 152 6 294 -11 563 -15
578 -9 14 5 16 31 16 190 0 180 0 184 -22 196 -52 29 -470 14 -656 -23 -84
-17 -82 -21 -82 156 l0 155 30 0 c16 0 91 -9 167 -19 257 -36 495 -39 540 -6
17 12 18 28 15 202 -2 143 -7 191 -17 202 -12 12 -42 12 -197 3 -101 -6 -260
-14 -355 -18 l-172 -6 -6 24 c-3 13 -4 77 -3 143 l3 120 130 0 c124 1 328 -6
680 -23 l160 -7 0 -150 c0 -82 -2 -373 -5 -645 l-5 -495 145 -6 c80 -4 633
-12 1229 -18 898 -10 1087 -10 1098 1 7 8 18 40 23 73 23 128 68 238 146 356
24 37 44 73 44 81 0 20 -988 1000 -1014 1006 -24 5 -58 -97 -64 -190 -3 -69 0
-100 16 -155 30 -95 94 -189 162 -235 30 -20 65 -44 77 -53 l22 -15 -43 -89
c-24 -49 -48 -103 -54 -120 -6 -17 -18 -34 -26 -37 -43 -16 -216 144 -280 259
-68 122 -88 196 -94 347 -5 161 6 219 73 359 37 77 43 96 33 108 -22 26 -149
148 -158 151 -5 2 -149 -139 -321 -312 -209 -212 -319 -316 -332 -316 -13 0
-68 46 -147 123 -218 213 -359 346 -593 561 -125 115 -226 215 -225 222 3 11
135 153 171 183 12 9 49 -25 203 -190 104 -111 220 -236 258 -278 135 -148
325 -341 336 -341 7 0 105 91 218 203 114 111 223 218 244 238 21 20 38 43 38
52 0 20 -107 117 -130 117 -20 0 -66 -49 -107 -113 -56 -88 -45 -89 -155 20
-54 54 -98 100 -98 104 0 3 28 24 63 47 34 22 80 56 101 74 l39 34 -33 37
c-64 74 -110 82 -227 41 -54 -18 -96 -25 -151 -26 -106 0 -144 8 -240 53 -339
156 -418 615 -153 880 116 116 266 171 431 158 183 -15 336 -107 427 -259 86
-142 101 -343 37 -488 -35 -78 -32 -92 30 -151 30 -28 59 -51 64 -51 10 0 71
77 117 148 15 23 33 42 39 42 14 0 196 -183 196 -196 0 -6 -15 -17 -32 -26
-41 -20 -162 -116 -166 -131 -1 -7 26 -41 62 -76 45 -45 68 -61 77 -55 35 22
479 482 479 496 0 9 -55 67 -122 129 -68 63 -211 197 -318 299 -107 102 -234
221 -283 265 -48 43 -87 84 -87 90 0 6 43 53 95 105 94 93 95 94 113 75 39
-41 161 -174 257 -280 105 -115 202 -218 473 -499 89 -92 162 -174 162 -181 0
-7 -142 -152 -315 -323 -173 -172 -315 -318 -315 -326 0 -18 151 -176 168
-176 7 0 29 11 50 24 59 37 178 76 266 87 145 18 337 -22 468 -99 104 -60 259
-203 258 -237 -1 -10 -222 -135 -240 -135 -5 0 -23 26 -39 58 -38 75 -123 153
-199 183 -85 34 -228 38 -321 9 -38 -12 -75 -28 -82 -36 -13 -16 -33 6 441
-479 497 -508 545 -555 563 -555 10 0 48 21 84 47 83 59 227 117 341 139 48 9
90 21 94 28 4 6 8 234 8 507 0 419 -2 498 -14 508 -15 12 -114 6 -288 -19 -37
-6 -81 -10 -98 -10 l-31 0 3 138 3 137 25 -1 c14 -1 77 -8 140 -16 63 -8 147
-14 185 -14 l70 1 0 125 0 125 -53 3 c-30 2 -111 -5 -180 -14 -70 -10 -140
-18 -157 -18 l-30 -1 0 140 c0 155 -6 143 65 131 97 -17 207 -26 275 -24 l80
3 -4 135 c-2 74 -5 137 -7 139 -12 13 -206 -11 -314 -39 -25 -7 -56 -13 -70
-13 l-25 -2 -3 133 c-2 111 0 133 13 138 8 3 101 7 207 7 l193 2 3 124 c2 88
-1 128 -10 138 -11 13 -38 15 -188 9 -276 -10 -650 -10 -661 1 -6 6 -14 113
-19 239 -21 515 -31 875 -25 884 7 12 252 14 259 2z m1172 -2713 c53 -6 105
-14 117 -18 15 -6 35 -2 62 10 22 11 31 14 21 7 -11 -7 -63 -41 -115 -76 -88
-57 -92 -55 -15 6 l29 23 -35 -22 c-51 -32 -79 -60 -75 -73 14 -47 15 -67 3
-60 -9 5 -8 2 2 -12 22 -30 24 -30 16 -9 -4 11 29 -16 73 -59 44 -44 78 -83
75 -88 -3 -4 8 -13 23 -20 15 -7 41 -23 56 -35 44 -36 98 -31 146 12 27 25 41
32 45 23 3 -7 4 -2 2 11 -7 34 9 13 23 -30 14 -45 64 -94 116 -114 31 -12 34
-14 10 -10 -16 3 -43 16 -60 27 -24 18 -27 18 -15 4 8 -11 33 -27 55 -37 22
-10 49 -25 59 -34 19 -15 19 -16 -15 -53 l-34 -37 40 38 c60 55 67 45 10 -13
-27 -27 -52 -50 -56 -50 -4 0 -14 17 -22 38 -15 37 -90 116 -100 105 -4 -3
-13 2 -22 10 -21 22 -108 32 -266 31 -134 -1 -259 -18 -259 -36 0 -5 -4 -6
-10 -3 -5 3 -10 2 -10 -3 0 -6 -7 -12 -15 -16 -13 -5 -15 31 -15 284 l0 290
30 0 c17 0 74 -5 126 -11z m1018 -220 c14 0 1 -19 -49 -69 -38 -38 -71 -67
-74 -64 -3 2 22 33 54 67 57 59 57 59 6 11 l-53 -51 -43 42 c-24 25 -57 46
-76 51 -33 7 -34 8 -9 15 14 5 70 6 125 3 55 -3 109 -6 119 -5z m-336 -19 c76
-47 96 -143 41 -205 -17 -19 -48 -40 -69 -46 -78 -23 -170 52 -170 139 0 103
110 165 198 112z m-238 -482 l0 -93 -124 -125 -124 -126 -48 34 c-66 46 -193
105 -280 132 l-71 21 7 37 c9 53 56 152 87 185 l27 27 263 0 263 0 0 -92z
m751 67 c39 -21 69 -71 69 -118 0 -50 -49 -105 -101 -113 -73 -12 -149 52
-149 125 0 94 96 150 181 106z m1789 -1515 c0 -49 -1 -50 -30 -50 -17 0 -30
-5 -30 -12 -1 -12 -34 40 -35 54 -1 15 -16 20 -29 9 -16 -13 -87 -8 -142 9
-24 8 -20 8 21 5 l50 -4 -45 11 c-69 16 -27 26 118 27 l122 1 0 -50z m-3710
-701 c47 -17 102 -36 123 -42 l37 -11 0 -78 0 -78 -96 -180 c-56 -106 -108
-190 -126 -205 l-30 -25 -254 0 -254 0 0 176 0 176 182 187 181 188 76 -38
c42 -21 114 -53 161 -70z m993 -47 c-82 -2 -172 0 -202 3 l-54 7 90 43 c50 23
108 55 129 69 l39 26 73 -73 73 -72 -148 -3z m-1293 -782 c26 -14 33 -55 15
-90 -14 -27 -14 -32 1 -55 16 -24 16 -25 -10 -25 -16 0 -31 9 -42 25 -9 14
-20 25 -25 25 -5 0 -9 -11 -9 -25 0 -20 -5 -25 -25 -25 -25 0 -25 1 -25 90 l0
90 51 0 c28 0 59 -4 69 -10z m415 -15 c33 -32 35 -98 3 -132 -17 -18 -32 -23
-75 -23 l-53 0 0 90 0 90 50 0 c41 0 56 -5 75 -25z m583 -65 l31 -90 -25 0
c-15 0 -24 6 -24 15 0 11 -11 15 -35 15 -22 0 -38 -6 -41 -15 -7 -16 -44 -21
-44 -5 0 5 10 35 21 67 12 32 26 68 30 81 6 14 17 22 33 22 22 0 27 -10 54
-90z m124 43 l33 -48 3 48 c3 39 6 47 23 47 17 0 19 -8 19 -90 0 -81 -2 -90
-18 -90 -11 0 -33 21 -53 48 l-34 47 -3 -47 c-3 -40 -6 -48 -23 -48 -17 0 -19
8 -19 90 0 83 2 90 20 90 12 0 32 -18 52 -47z m413 -30 c15 -43 29 -84 32 -90
3 -9 -4 -13 -21 -13 -16 0 -26 6 -26 15 0 10 -10 15 -34 15 -21 0 -36 -6 -40
-15 -3 -8 -16 -15 -30 -15 l-24 0 27 73 c15 39 31 80 34 90 4 10 17 17 31 17
21 0 28 -9 51 -77z"/>
<path d="M2150 8651 c-20 -4 -41 -10 -48 -15 -13 -8 383 -436 405 -436 23 0
37 114 21 185 -27 127 -125 224 -263 260 -64 16 -63 16 -115 6z"/>
<path d="M1871 8403 c-5 -11 -9 -53 -8 -94 3 -132 74 -238 200 -298 54 -26 77
-31 139 -31 50 0 81 5 94 15 18 14 8 25 -190 217 -115 112 -212 204 -217 206
-4 2 -12 -5 -18 -15z m379 -380 c0 -1 -28 -2 -62 -1 l-63 1 55 7 c58 7 51 13
-13 10 -31 -1 -43 4 -69 32 -33 35 -63 95 -72 141 -4 24 11 12 110 -79 63 -59
114 -109 114 -111z"/>
<path d="M4908 6095 c-83 -29 -181 -80 -204 -107 -17 -18 -12 -24 161 -198 98
-98 182 -177 187 -174 4 3 8 117 8 255 l0 249 -42 0 c-24 -1 -73 -12 -110 -25z
m111 -242 c0 -93 -3 -161 -6 -153 -3 8 -46 57 -97 108 -76 77 -89 95 -80 110
8 12 163 100 182 102 1 0 2 -75 1 -167z"/>
<path d="M5250 5871 c0 -138 4 -252 8 -255 5 -3 86 73 181 168 120 120 172
179 169 191 -7 38 -246 145 -323 145 l-35 0 0 -249z m246 140 c34 -16 64 -33
67 -38 3 -5 -38 -53 -91 -106 l-97 -97 3 123 c1 67 5 128 7 135 7 20 46 14
111 -17z"/>
<path d="M4506 5787 c-55 -72 -132 -276 -119 -314 4 -10 64 -13 259 -13 140 0
254 3 254 8 0 12 -344 352 -357 352 -7 0 -23 -15 -37 -33z m218 -186 l108
-109 -121 -1 c-66 -1 -136 1 -155 4 l-34 7 24 56 c14 32 35 78 47 104 12 26
22 47 22 48 0 0 49 -49 109 -109z"/>
<path d="M5582 5647 c-94 -95 -172 -176 -172 -180 0 -4 115 -7 255 -7 l255 0
0 24 c0 83 -116 336 -153 336 -7 0 -90 -78 -185 -173z"/>
<path d="M4386 5252 c-9 -14 21 -134 48 -197 35 -79 88 -165 101 -165 11 0
365 351 365 363 0 10 -508 9 -514 -1z"/>
<path d="M5410 5252 c0 -4 80 -88 179 -186 l179 -178 20 20 c51 51 145 294
129 335 -6 15 -31 17 -257 17 -137 0 -250 -3 -250 -8z"/>
<path d="M4862 4927 c-94 -95 -172 -178 -172 -185 0 -46 330 -182 353 -144 10
14 9 496 0 499 -4 2 -86 -75 -181 -170z m149 -174 c-1 -64 -4 -119 -5 -121 -6
-5 -86 18 -136 39 l-46 20 91 92 c49 51 92 91 94 90 2 -1 3 -55 2 -120z"/>
<path d="M5262 4848 l3 -253 26 -3 c61 -7 324 115 324 150 0 17 -331 358 -347
358 -5 0 -7 -114 -6 -252z m260 -135 c-31 -18 -76 -39 -99 -47 l-43 -15 0 147
0 147 100 -100 100 -99 -58 -33z"/>
</g>
</svg>
