<?xml version="1.0" standalone="no"?>
<!DOCTYPE svg PUBLIC "-//W3C//DTD SVG 20010904//EN"
 "http://www.w3.org/TR/2001/REC-SVG-20010904/DTD/svg10.dtd">
<svg version="1.0" xmlns="http://www.w3.org/2000/svg"
 width="109.000000pt" height="146.000000pt" viewBox="0 0 109.000000 146.000000"
 preserveAspectRatio="xMidYMid meet">
<metadata>
Created by potrace 1.16, written by Peter Selinger 2001-2019
</metadata>
<g transform="translate(0.000000,146.000000) scale(0.100000,-0.100000)"
fill="#000000" stroke="none">
<path d="M0 1388 c0 -51 4 -76 16 -89 15 -16 15 -20 0 -50 -25 -50 -21 -60 19
-53 22 3 35 1 35 -6 0 -12 40 6 52 24 5 8 8 7 8 -1 0 -7 6 -13 14 -13 7 0 19
-7 26 -15 10 -12 8 -22 -13 -54 -27 -40 -50 -45 -84 -18 -9 7 -13 5 -13 -6 0
-9 5 -19 10 -22 12 -7 9 -37 -4 -47 -5 -3 -20 -2 -34 3 -14 5 -26 8 -28 6 -3
-2 -3 -237 -2 -523 l3 -519 31 47 c51 77 89 115 139 137 59 26 59 26 73 -4 10
-22 9 -25 -7 -25 -23 0 -45 -25 -36 -40 4 -7 18 -4 40 10 33 21 33 21 28 0 -3
-11 -9 -20 -13 -20 -5 0 -14 -16 -20 -35 -6 -19 -16 -35 -21 -35 -5 0 -9 -5
-9 -11 0 -5 6 -7 13 -4 6 4 3 -1 -7 -9 -19 -15 -17 -16 27 -16 41 0 48 3 62
30 8 16 15 39 15 51 0 22 0 22 28 -4 15 -15 32 -27 38 -27 5 0 17 -9 26 -19
22 -26 88 -35 151 -21 57 13 177 78 177 95 0 6 14 24 31 41 17 16 45 47 61 69
16 22 45 57 64 77 19 20 34 47 35 60 0 13 10 -20 21 -72 20 -95 38 -137 38
-88 0 14 5 39 11 57 11 32 12 32 38 15 14 -9 32 -23 39 -32 10 -13 12 19 12
165 0 136 -3 182 -12 186 -10 3 -10 9 0 27 17 29 8 37 -20 18 -22 -15 -39 -42
-52 -81 -8 -25 -53 -22 -68 6 -7 12 -11 25 -10 30 1 4 -3 7 -9 7 -7 0 -9 -19
-5 -55 3 -33 2 -55 -4 -55 -6 0 -10 -7 -10 -15 0 -19 -29 -65 -40 -65 -15 0
-76 -68 -72 -80 3 -8 0 -10 -7 -6 -6 4 -11 1 -12 -6 0 -7 -11 10 -25 39 -18
40 -22 57 -15 76 14 35 -12 69 -47 64 -46 -8 -72 -19 -66 -28 9 -15 -24 -10
-40 7 -9 8 -21 12 -27 8 -7 -4 -9 -3 -6 3 6 10 -21 42 -30 36 -9 -7 -23 -2
-18 7 3 6 19 10 34 10 16 0 34 6 41 14 9 12 5 16 -24 22 -20 3 -49 3 -64 0
-15 -4 -42 -9 -60 -11 -45 -6 -54 -13 -43 -34 14 -25 2 -99 -17 -106 -9 -3
-21 0 -27 7 -17 22 -49 15 -63 -15 -10 -21 -11 -39 -4 -72 9 -45 9 -45 -17
-45 -34 0 -66 33 -85 86 -26 75 -53 324 -35 324 5 0 9 62 8 140 l-1 140 38 68
c50 90 101 138 156 147 24 4 66 13 93 21 50 13 173 13 227 -1 15 -4 30 -15 33
-25 3 -11 20 -21 38 -25 58 -12 65 -15 75 -43 5 -15 10 -52 11 -82 2 -41 9
-65 29 -95 15 -22 39 -74 54 -115 17 -47 27 -66 27 -50 1 14 8 35 16 46 8 12
11 25 7 29 -4 5 1 5 11 2 10 -4 28 -7 38 -7 26 0 71 -99 67 -146 -1 -19 1 -34
5 -34 4 0 12 0 17 0 15 0 13 163 -2 178 -8 8 -9 15 -3 20 6 4 11 13 13 21 2 9
-4 12 -19 8 -21 -6 -21 -5 -6 10 15 15 15 17 0 28 -19 14 -9 37 13 28 13 -5
15 26 13 246 -1 198 -4 251 -14 251 -8 0 -11 -8 -8 -20 4 -14 0 -20 -12 -20
-11 0 -15 5 -12 14 4 9 -3 16 -16 19 -46 11 -860 7 -874 -4 -8 -8 -13 -8 -13
-1 0 6 -23 10 -54 9 -44 -1 -53 -4 -44 -14 8 -10 7 -12 -6 -7 -9 3 -16 10 -16
15 0 5 -4 9 -10 9 -6 0 -10 -31 -10 -72z m678 -981 c6 -5 12 -25 12 -45 0 -32
1 -34 13 -17 11 14 16 15 22 5 5 -8 4 -11 -3 -6 -6 4 -12 -4 -14 -21 -2 -17
-12 -32 -25 -38 -13 -5 -23 -15 -23 -22 0 -12 -49 -70 -56 -65 -11 6 -34 1
-29 -7 3 -6 -3 -8 -14 -6 -11 2 -22 -3 -27 -13 -6 -14 -9 -11 -14 13 l-8 30
-1 -34 -1 -34 -42 7 c-24 4 -49 8 -56 8 -23 2 -72 57 -95 109 -29 64 -30 77
-5 92 26 17 111 36 166 38 36 1 36 2 7 8 -16 3 17 6 75 6 58 0 111 -4 118 -8z"/>
<path d="M593 898 c-73 -12 -84 -23 -81 -75 3 -43 5 -46 33 -49 17 -2 37 4 47
13 13 11 18 12 18 3 0 -9 14 -11 58 -5 105 12 85 29 -31 27 -21 -1 -27 3 -23
14 3 9 -1 14 -12 15 -9 0 5 8 32 17 27 9 51 22 53 28 5 15 -42 21 -94 12z"/>
<path d="M191 817 c-34 -21 -42 -40 -13 -31 16 5 16 5 0 -6 -22 -13 -24 -34
-3 -26 8 3 14 2 14 -2 -5 -31 3 -42 31 -42 22 0 30 5 30 18 0 13 2 14 9 3 9
-15 61 -8 61 8 0 4 18 7 40 5 38 -2 40 -1 40 25 0 16 -10 37 -24 50 -20 19
-33 22 -89 20 -45 -1 -75 -8 -96 -22z"/>
</g>
</svg>
